<mxfile host="app.diagrams.net" modified="2021-04-16T15:11:58.845Z" agent="5.0 (Windows NT 10.0; WOW64) AppleWebKit/537.36 (KHTML, like Gecko) Chrome/80.0.3987.87 Safari/537.36 SE 2.X MetaSr 1.0" etag="60FpQ4PWePICElD4uNg0" version="14.6.1" type="github">
  <diagram id="nLtZZPbHcWHw0Y8Jiu4z" name="Page-1">
    <mxGraphModel dx="1422" dy="747" grid="1" gridSize="10" guides="1" tooltips="1" connect="1" arrows="1" fold="1" page="1" pageScale="1" pageWidth="827" pageHeight="1169" math="0" shadow="0">
      <root>
        <mxCell id="0" />
        <mxCell id="1" parent="0" />
        <mxCell id="3vtXMhwTNByzbysNtgJr-1" value="" style="shape=image;verticalLabelPosition=bottom;labelBackgroundColor=#ffffff;verticalAlign=top;aspect=fixed;imageAspect=0;image=data:image/png,iVBORw0KGgoAAAANSUhEUgAAAgoAAAG4CAYAAAAkK8+2AAAgAElEQVR4Ae29/4sV2Z3///43LizDsLvzD4iB/SG7ht7d9jriSIYZ0N5p0g7YIJjmbqvRuNks3eCIw/wQmI2ttBnw04YRFZSNrMFedaAjkawSOnRo3Z12gojj2LvbJEuUlZjXh9c5darOOXWqbtW99b2eF7TvrTrndV7n8Tp1Xs86Vbfu/6OMX8vLy7SwsECzs7M0NTVFY2NjNDo6SpOTk7Rp0yb8sxgwl61bt9L4+DhNT0/T8ePH6dKlS/TkyZOMIwNzIAACIAACIJCewP9LXyVc49atWzQzM0MjIyM0MTFB58+fp8uXL9PS0hKtrq7S+vp6uBK2+ASePXtGKysrxBwvXLhA8/PztH37dtq9ezedPn2aHjx44JfFGxAAARAAARAoksBQQoEFwZ49e8SZ8JUrV2hjY6NI3xvf1v379+nUqVNiNWbfvn3En/ECARAAARAAgSIJDCQUrl27Rtu2baMTJ07Qy5cvi/S3tW3duXNHrDAcPXqUnj592loO6DgIgAAIgECxBFIJhVevXtGRI0cIyarYIOmtKZF27tw5fTPegwAIgAAIgEAuBBILBV723rx5M62treXiCIymI8D3Lhw+fDhdJZQGARAAARAAgZQEEgmFq1evimXvlLZRPGcC169fp507d9Lz589zbgnmQQAEQAAE2kqgr1C4d+8eHTp0qK18Kt/vR48e0VtvvUUvXryovK9wEARAAARAoH4EYoUCryRAJNQjqHxZiO8hwQsEQAAEQAAEsiQQKRT4ngT+Hj9e9SDw+PFj2rFjRz2chZcgAAIgAAK1IeAUCnxmymeoeNWLwO3bt2n//v31chreggAIgAAIVJqAUyjwVyDx7YZKxy3SOX4i5pkzZyL3YwcIgAAIgAAIpCEQEgr8PX1+TgJe9SXAD8PCQ5nqGz94DgIgAAJVIhASCkgyVQrPYL7cvHmTDhw4MFhl1AIBEAABEAABjYAhFPi3G/ixzHjVn8DevXvp7t279e8IegACIAACIFAqAUMo8A884bcbSo1HZo0/fPiQDh48mJk9GAIBEAABEGgnAV8o8E8cT09Pt5NCQ3u9a9cu/ER1Q2OLboEACIBAUQR8oTAzM0P8U9F4NYfA/Pw8nTx5sjkdQk9AAARAAAQKJ+ALhZGREdrY2CjcATSYHwH+ius777yTXwOwDAIgAAIg0HgCQigsLy/TxMRELTu7NtelTneO0v2m5RrNdbs0F1FpsdehbtTOmlF6++236YsvvqiZ13AXBEAABECgKgSEUFhYWCD+xkMpr8UedTqdyH/xCZsTfod6i0Sc3OPs+Ps8UREnMBIJhbU56sb47bfnl4kWJnlyP3v2LF28eDHPJmAbBEAABECgwQSEUJidnSV+ol8pLyEUerQYanyRep0+Z/aRdW1jgaAI9shtLiGSXCiE/RYChJWL8eK+lCMUPv30U/rwww8Nb/ABBEAABEAABJISEEJhamqKlpaWktbJtlxksu8vFBIldOGtSygQL0N4ly1kW+FVAGuVQr/EIVYUqi8Ubty4ga9JZjtiYQ0EQAAEWkVACIWxsTFaXV0tp+ODCgVv6d9fERB2rMTun8VHCAVnj91lQysFNbn0sLKyQuPj486eYiMIgAAIgAAI9CMghMLo6Citr6/3K5vP/oGEgkzmvAJgCgX9DF9f7ncnf3eH5OqCffXALRT09qS1UDmxWffF3WpeW7/66ivqdrt5mYddEAABEACBhhMQQmFycrK8bg4gFEQy7s7RnP7thJAdPTmbQkG/8dEXGoqAWCkI308g6ujqoSaXHrhbW7ZsSXajp3/jpb0yU43P/A0OvEAABEAABIolUMsVhcWeTOTGPQophIJCbNT3NioRYn9zMlS2JpcemrSiwCtIeIEACIAACBRLoPR7FKISM5G8BBA649f4GMk7E6EQ3abRFvtgryh4wkEsOghf9FUJfXVD60ABb5t0jwKEQgEDBk2AAAiAgEVACIUyv/XACbijL+n7DkYnbVXESN4iOdtL5CpZm5cenPVJ3fcQvu+AvH1ON1U9/RsRogFpL07oKD/y/Nukbz1AKOQ5UmAbBEAABNwEhFAo7TkK+ll4yL+wUBCiQkvIYaHgSvJsuJ9QkG11/G9JWM4IP5XoUPuUsOjS3Jz6mqXaF7TJNxIaN13qRQp436TnKEAoFDBg0AQIgAAIWASEUCjnyYxeotUSv+lbhFDQTusNoWBWtj7FCwUhQDqmyBCXRLSb+/SVAVk+EA6irOaXbNxs07cXKme5mvHHJj2ZEUIh48EBcyAAAiCQgIAQCsX/1oM6GzeTs+mvLBMkaLdwCPabtc1Psq6Ro73VDPdlD7N2/CeHbVHBFArxNvLb26TfeoBQyG+cwDIIgAAIRBEQQoF3FvnrkeKMPHIlIXDVPwv3z+xNYRG7oqCEgKqrtafs9haTCJbAn9A71YahQFSp8oVC0349EkJBjS38BQEQAIHiCPhCYWZmhq5cuVJcyyW2xELByO3OGyHtGyO9z17FQGxEdaR8oTA/P08nT56McrB22yEUahcyOAwCINAAAr5QuHXrFk1PTzegS+iCIrBr1y568OCB+lj7vxAKtQ8hOgACIFBDAr5QYN/37NlDL1++rGE34LJN4OHDh437MSgIBTvK+AwCIAAC+RMwhML58+fpxIkT+beKFnInsHfvXrp7927u7RTZAIRCkbTRFgiAAAhIAoZQ4E3btm2jp0+fgk+NCdy8eZMOHDhQ4x64XYdQcHPBVhAAARDIk0BIKFy7do2OHj2aZ5uwnTOBN998k7788sucWynePIRC8czRIgiAAAiEhAIjOXLkCPFX6/CqH4HLly/TmTNn6ud4Ao8hFBJAQhEQAAEQyJiAUyi8evWKNm/enHFTMJc3gdu3b9P+/fvzbqY0+xAKpaFHwyAAAi0m4BQKzOP+/fu0e/fuFqOpV9cfP35MO3bsqJfTKb2FUEgJDMVBAARAIAMCkUKBbV+9epUOHTqUQTMwkTcBXgHilaAmvyAUmhxd9A0EQKCqBGKFAjt97949iIWqRo+IHj16JFYSXrx4UWEvs3ENQiEbjrACAiAAAmkI9BUKbIxXFnAZIg3WYspev36ddu7cSc+fPy+mwZJbgVAoOQBoHgRAoJUEEgkFJsP3LPDyNr4NUY1xcvr0aTp8+HA1nCnICwiFgkCjGRAAARDQCCQWClyHr4HzVyf5OQt4KJNGscC3/JwLfijWuXPnCmy1Gk1BKFQjDvACBECgXQRSCQWFRiUrftwzfhtCUcn37507d8TlnzaLNAiFfMcYrIMACICAi8BAQkEZ4t+G4B+S4l+d5J+o3tjYULvwNwMCfLnn1KlTNDk5Sfv27ROXfzIwW1sTEAq1DR0cBwEQqDGBoYSC6jf/RPXMzAyNjIzQxMQEsYDgJwQuLS3R6uoqra+vq6L46yDw7NkzWllZIeZ44cIFmp+fp+3bt4sVBL4XoUk/Fe3ofuJNEAqJUaEgCIAACGRGIBOhoHuzvLxMCwsLNDs7S1NTUzQ2Nkajo6PirHjTpk2EfyYDXi3YunUrjY+Pi5WZ48eP06VLl+jJkyc6VrwnIggFDAMQAAEQKJ5A5kKh+C6gxbYQgFBoS6TRTxAAgSoRgFCoUjTgSywBCIVYPNgJAiAAArkQgFDIBSuM5kEAQiEPqrAJAiAAAvEEIBTi+WBvhQhAKFQoGHAFBECgNQQgFFoT6vp3FEKh/jFED0AABOpHAEKhfjFrrccQCq0NPToOAiBQIgEIhRLho+l0BCAU0vFCaRAAARDIggCEQhYUYaMQAhAKhWBGIyAAAiBgEIBQMHDgQ5UJQChUOTrwDQRAoKkEIBSaGtkG9gtCoYFBRZdAAAQqTwBCofIhgoOKAISCIoG/IAACIFAcAQiF4lijpSEJQCgMCRDVQQAEQGAAAhAKA0BDlXIIQCiUwx2tggAItJsAhEK741+r3kMo1CpccBYEQKAhBCAUGhLINnQDQqENUUYfQQAEqkYAQqFqEYE/kQQgFCLRYAcIgAAI5EYAQiE3tDCcNQEIhayJwh4IgAAI9CcAodCfEUpUhACEQkUCATdAAARaRQBCoVXhrndnqywUJicnadOmTfjXUAYcX7xAoK0EIBTaGvka9rvKQoFFAl7NJYD4Nje26Fl/AhAK/RmhREUIQChUJBAtdANCoYVBR5d9ApkLheXlZVpYWKDZ2VmampqisbExGh0dJSzNupelmcvWrVtpfHycpqen6fjx43Tp0iV68uSJHyS8kQQgFDASyiIAoVAWebRbBQKZCIVbt27RzMwMjYyM0MTEBJ0/f54uX75MS0tLtLq6Suvr61Xoa2V9ePbsGa2srBBzvHDhAs3Pz9P27dtp9+7ddPr0aXrw4EFlfS/SMQiFImmjLZ0AhIJOA+/bRmAoocCCYM+ePeJM+MqVK7SxsdE2frn29/79+3Tq1CmxGrNv3z7iz21+QSi0Ofrl9h1CoVz+aL1cAgMJhWvXrtG2bdvoxIkT9PLly3J70JLW79y5I1YYjh49Sk+fPm1Jr81uQiiYPPCpOAIQCsWxRkvVI5BKKLx69YqOHDlCbU5WZYdQibRz586V7Urh7UMoFI4cDXoEIBQwFNpMILFQ4GXvzZs309raWpt5VabvfO/C4cOHK+NPEY5AKBRBGW24CEAouKhgW1sIJBIKV69eFcvebYFSl35ev36ddu7cSc+fP6+Ly0P5CaEwFD5UHoIAhMIQ8FC19gT6CoV79+7RoUOHat/Rpnbg0aNH9NZbb9GLFy+a2kW/XxAKPgq8KZgAhELBwNFcpQjECgVeSYBIqFS8Ip3hy0J8D0mTXxAKTY5utfsGoVDt+MC7fAlECgW+J4G/x49XPQg8fvyYduzYUQ9nB/QSQmFAcKg2NAEIhaERwkCNCTiFAp+Z8hkqXvUicPv2bdq/f3+9nE7hLYRCClgomikBCIVMccJYzQg4hQJ/BRLfbqhZJD13+YmYZ86cqafzfbyGUOgDCLtzIwChkBtaGK4BgZBQ4O/p83MS8KovAX4YVhMfygShUN8xWXfPIRTqHkH4PwyBkFBoapIZBlLd6t68eZMOHDhQN7f7+guh0BcRCuREAEIhJ7AwWwsChlDg327gxzLjVX8Ce/fupbt379a/I1oPIBQ0GHhbKAEIhUJxo7GKETCEAv/AE367oWIRGtCdhw8f0sGDBwesXc1qEArVjEsbvIJQaEOU0ccoAr5Q4J84np6ejiqH7TUksGvXrkb9RDWEQg0HYUNchlBoSCDRjYEI+EJhZmaG+Kei8WoOgfn5eTp58mRjOgSh0JhQ1q4jEAq1CxkczpCALxRGRkZoY2MjQ9P5m1qb61KnO0f2z1Qt9jrU6S3m70DFW+CvuL7zzjsV9zK5exAKyVmhZLYEIBSy5Qlr9SIghMLy8jJNTEzUy3MicgqFtTnqdjo0mE5YpF6nQ905W3qkQLPYo06nS8OYSNFa36Jvv/02ffHFF33L1aFAG4TCYCJ3jea67jHP9uLGsziGIg8WeTy4xHhW48XdPrerHUPimO6RS/q767N3lo0hHYZQGBIgqteagBAKCwsLxN94KPIlJsROh3jyT/zPmtBcQiHWrmP1we6zsNlxT0p22ajPwocEbUXVz3L72bNn6eLFi1maLM1Ws4WCTPZiJWxtTa6SxSRIMxHqQiHqvStsell7f7CPx7N16NmFWbVTV0/u4RLOLe5EbyX5GA7u+tyUZcPZevKNEArJWaFk8wgIoTA7O0v8RL8iXzz5xJ3p2L7oE4JTDHBiFhMKCw870fOkobXnl0shUoSgsc9y0tbXfLA7mNPnTz/9lD788MOcrBdrtrFCIWoVam2NFvnyWlQC9hOoSurqrxcXf384Ts5jSDtujOMzxo5v2ffVPvb8Es43+nEt3ic5cdBUi17fbABCweSBTyAwOAEhFKampmhpaWlwKwPUFBNRt2vcSyAOevtMXEyiPZrjCVObILhJu7ya3MzJQ4oEo27UxMfbrTaCrlkTT5SNoEIl3t24caMxX5OsglD40z/9U/qzP/szOnbsmBHfQc843QnbLUAjhyZZAsHzTBwHrsSrDPGxZR9vfC7uEPH2sWZ0Xvsg+qPsa9uj3prHqiqV/Fgz60sO0SuU6USM8ob/Dhpf3Qbeg0BdCQihMDY2Rqurq4X2QU1G6i95k12316OuNnmpicecENhVb1JQZTlxq/feZOdPGM6Jy6vfW5SCg8uEzoqCMiE4tlDwBI19HTXoX8hCIRtWVlZofHy8kLbybqQKQsEfU14CVoIhm0QiRa1zpc1K6uJ4cIkAb1tvUdrSh759DIXHphzvXRbwIdtd6vXcNw+bcQ+3a+6Xn8RxbbfhO9tfKDj7rx3/oUsP9vHqcipmWzbxjWkAu0CgwgSEUBgdHaX19fVC3fQnKXEAd2luka9xSsUvJhExaQQThj3JyWui6sxLuyQgeuEleG8iipx4vSXdONty7lqjuTlLAngTj1jpsCe8mM/+XFgQ7a+++op44m/Cq4pCQSXUN954Ix1iMX7U+E331xxDazTX61GvK22osa4SqfrMzvnHnPBUHVvqrycS+tyFK+waCdnqthDMHedKhVUyEPt+h8zjVrE1/vplpbXQses3ovrlbYBQ8MngDQikJSCEwuTkZNp6Q5fXJ63wpMYHeUckOLU0ak8Iqo7cv0g9MXnJemJiUROKNiGrTfJsI7hfQNqeE3eOy0kpEB7Cz96cnIj1CdKeeCq6osCB2rJli+MMMV1yMibrGCHU5nLbt28f+LgQ4lgfX8KSlews6/IY4LEqE2xvUSX7RTGWxcqAP+hVGc+Iv0Kht6EdPyLGwXEgatlj3vKHP4p+9OSx5DftKBfY07/KrPx3f+vIngPYhmtbYFu71JDA9yg3eTtWFOLoYF/TCZS/osCEvWRuTCzemYnaZk4IckITE6GaXD0b+hmUETxvv3GvgrgzWkuYqjG/omxHbdbFjfRZm4jUmZQjiUb65LeT3xusKGTLNkoIpV5R8N2SyVEJYrlZH3f6e7+StTqgiwAu741LXbyK8R8kfikytLEvbvadC+qKS3uyPJcVY1jY0MZ84I585x1j4njxhYhdKPgs7PqXOdiux8JxDPnc1cHomTHnhcB26Pjs57tW1fUWQsFFBdvaQqD0exQYtEjAPGGopK/OFLRvKugTgnov/mp1EgfNm9D0u8nFmZBrgoqyP+TEk9jXIQviHoUhAVrV/YTljZWh7lHwxKUuJNU45HzID8ySL5VAHUlaT86Wr2rlLD5xs7BQAkITGQMIBeG7f7zo4iXkGB/1QpT4NylzP7ryEorOQ6+pjnv3NsXIFD92vPhzlH3drv0eQsEmgs9tIiCEQmnfehDXQ9VEJQ/04MxF3bcQnNWo1YDFnrbNn5iE4ohdYlcTxOJc+GmOqYOuzph80dFngrLOhFK3N2AFfOthQHAR1fhbD3/+538+9LceRNJTZ/7aGDKGidiukniw8sbjWAkKVyLUBbco510KUOPf7Jo6/ngrv9fHcXCcBcelQ6xwVa8Phv/6iobZqLhkwDbN5J8g2RsNRF96UHys4pYXyT9CKCRnhZLNIyCEQpnPUTBWBUTylWcV6gCXE532zQQtBkZd3h4zMbEd90SpGRQmkpUzJzhvwtJFi2dWTlgRk6vZdC6f8ByFXLCGjA6TSELCVYxjmbC7c4v8ZRznS4xBJTa8EqFx7ouQqDGoiQO+KdK3x0k7qVDwErw6aDVvQ/74fkp/7ONIqyqPZ8cxpZeRDDxxo8r68wD3LarfupX+74eJb3/rKAEC1SYghEJZT2YUX4W0HrfMB76Z0OXB7i9RajzFJKEmB97uTxBaIe9teMKSk5s9t4XLuezKuqafwVlVxzuD47M9237Ys3y34MmM+fJV1odOJJo40C+JCfsi2dsJz0vO2lJ66HjgyhFCgcd5sBqhVi000SBWFpIJBWnL9k+RkTajjgPhs9gZ9CfwS/dRe99bDFZUbMOCo+qP69hVfqX7O3R80zWH0iBQKQJCKJTxWw/+RKUn+hg0wYQSFApNjEUJBWc7wSTL11q73tfV1OWSwOti3+G3HorhPXAi8QWCltw8l8X4Fgmbk/Ban5UFTqRWsvZEAgtacbw5jzUet6ptfq9scOJW232H/K8wK6rSR6uc2qn+2slbbRc6JvwgNbnbExj8XJU+X9mU5ZXQcPiicdCaTvV24PimagWFQaCaBIRQYNeK/vVInrj6TQC+mPCum9onD26hoJ15GNdb7fbUxBJd3jyzUROod/MlT17+JO+YpFW8jTK2D6pQPn/x65H5cHVZzSaRmGOy3/ERrBaocSWTq6jnjbvAhrIdjGPZj8GFgjw+bXsuOurMPrzCJo5h68CWdoOE31+MyH73E+W23QhPnZuzia/TNDaCQOUJ+EJhZmaGrly5UnmHdQfdQsE9cfEkEUyaupUE78Wk67aboHZpRebn5+nkyZOltZ91wyzcqvoaNJHI5KXEapAc+/VT1bNyrKgWl1hFPWNlwSEUfHErx7y05/noNRi208/j4DKIfhwK22zTv0QSFhPSshI6+nMXErSZUZFB45tR8zADAqUS8IXCrVu3aHp6ulRn0Hi2BHbt2kUPHjzI1miJ1pooFErEiaZTEIBQSAELRRtHwBcK3LM9e/bQy5cvG9fJNnbo4cOHjfkxKBU/CAVFAn+LJgChUDRxtFclAoZQOH/+PJ04caJK/sGXAQns3buX7t69O2DtalaDUKhmXNrgFYRCG6KMPkYRMIQCF9q2bRs9ffo0qjy214DAzZs36cCBAzXwNJ2LEArpeKF0dgQgFLJjCUv1IxASCteuXaOjR4/Wryfw2Cfw5ptv0pdfful/bsobCIWmRLJ+/YBQqF/M4HF2BEJCgU0fOXJEe858do3BUv4ELl++TGfOnMm/oRJagFAoATqaFAQgFDAQ2kzAKRRevXpFmzdvbjOXWvb99u3btH///lr6nsRpCIUklFAmDwIQCnlQhc26EHAKBXb+/v37tHv37rr0o/V+Pn78mHbs2NFoDhAKjQ5vpTsHoVDp8MC5nAlECgVu9+rVq3To0KGcXYD5LAjwChCvBDX5BaHQ5OhWu28QCtWOD7zLl0CsUOCm7927B7GQbwyGsv7o0SOxkvDixYuh7NShMoRCHaLUTB8hFJoZV/QqGYG+QoHN8MoCLkMkA1pkqevXr9POnTvp+fPnRTZbWlsQCqWhb33DEAqtHwKtBpBIKDAhvmeBl7f5h4bwKp/A6dOn6fDhw+U7UqAHEAoFwkZTBgEIBQMHPrSMQGKhwFz4Gjh/dZKfs4CHMpUzUvg5F/xQrHPnzpXjQImtQiiUCL/lTUMotHwAtLz7qYSCYqWSFT/uGb8Noajk+/fOnTvi8k+bRRqEQr5jDNajCUAoRLPBnuYTGEgoKCz82xD8Q1L8q5P8E9UbGxtqF/5mQIAv95w6dYomJydp37594vJPBmZrawJCobahq73jEAq1DyE6MASBoYSCapd/onpmZoZGRkZoYmKCWEDwEwKXlpZodXWV1tfXVVH8dRB49uwZraysEHO8cOECzc/P0/bt28UKAt+L0KSfinZ0P/EmCIXEqFAwYwIQChkDhblaEchEKOg9Xl5epoWFBZqdnaWpqSkaGxuj0dFRcVbMBxv+mQx4tWDr1q00Pj4uVmaOHz9Oly5doidPnuhY8Z6IIBQwDMoiAKFQFnm0WwUCmQuFKnQKPjSTAIRCM+Nah15BKNQhSvAxLwIQCnmRhd3MCUAoZI4UBhMSgFBICArFGkkAQqGRYW1mpyAUmhnXOvQKQqEOUYKPeRGAUMiLLOxmTqDKQoHvNeFk0pZ/b7zxRmv6yjHl+OIFAm0lAKHQ1sjXsN9VFgo1xDmUy4jFUPhQGQRqRQBCoVbharezSE7ViT9iUZ1YwBMQyJsAhELehGE/MwJITpmhHNoQYjE0QhgAgdoQgFCoTajgKJJTdcYAYlGdWMATEMibAIRC3oRhPzMCSE6ZoRzaEGIxNEIYAIHaEIBQqE2o4CiSU3XGAGJRnVjAExDImwCEQt6EYT8zAkhOmaEc2hBiMTRCGACB2hCAUKhNqOAoklN1xgBiUZ1YwBMQyJsAhELehGE/MwJITpmhHNoQYjE0QhgAgdoQgFCoTajgKJJTdcYAYlGdWMATEMibAIRC3oRhPzMCSE6ZoRzaEGIxNEIYAIHaEMhcKCwvL9PCwgLNzs7S1NQUjY2N0ejoqHhWelueg5+mn/wM+a1bt9L4+DhNT0/T8ePH6dKlS/TkyZPaDKKiHEVyKop0/3YQi/6MUAIEmkIgE6Fw69YtmpmZoZGREZqYmKDz58/T5cuXaWlpiVZXV2l9fb0pvHLpx7Nnz2hlZYWY44ULF2h+fp62b99Ou3fvptOnT9ODBw9yabduRpGcqhMxxKI6sYAnIJA3gaGEAguCPXv2iDPhK1eu0MbGRt7+tsr+/fv36dSpU2I1Zt++fcSf2/xCcqpO9BGL6sQCnoBA3gQGEgrXrl2jbdu20YkTJ+jly5d5+wj7RHTnzh2xwnD06FF6+vRpK5kgOVUn7IhFdWIBT0AgbwKphMKrV6/oyJEj1OZklXdA+tlXIu3cuXP9ijZuP5JTdUKKWFQnFvAEBPImkFgo8LL35s2baW1tLW+fYD8BAb534fDhwwlKNqcIklN1YolYVCcW8AQE8iaQSChcvXpVLHvn7QzspyNw/fp12rlzJz1//jxdxZqWRnKqTuAQi+rEAp6AQN4E+gqFe/fu0aFDh/L2A/YHJPDo0SN666236MWLFwNaqE81JKfqxAqxqE4s4AkI5E0gVijwSgJEQt4hyMY+Xxbie0ia/EJyqk50EYvqxAKegEDeBCKFAt+TwN/jx6seBB4/fkw7duyoh7MDeonkNCC4HKohFjlAhUkQqCgBp1DgM1M+Q8WrXgRu375N+/fvr5fTKbxFckoBK+eiiEXOgLQq9HsAACAASURBVGEeBCpEwCkU+CuQ+HZDhaKUwhV+IuaZM2dS1KhPUSSn6sQKsahOLOAJCORNICQU+Hv6/JwEvOpLgB+G1cSHMiE5VWdMIhbViQU8AYG8CYSEQlOTTN4gq2T/5s2bdODAgSq5lIkvSE6ZYMzECGKRCUYYAYFaEDCEAv92Az+WGa/6E9i7dy/dvXu3/h3ReoDkpMEo+S1iUXIA0DwIFEjAEAr8A0/47YYC6efY1MOHD+ngwYM5tlC8aSSn4plHtYhYRJHBdhBoHgFfKPBPHE9PTzevhy3u0a5duxr1E9VITtUZzIhFdWIBT0AgbwK+UJiZmSH+qWi8mkNgfn6eTp482ZgOITlVJ5SIRXViAU9AIG8CvlAYGRmhjY2NvNuD/QIJ8Fdc33nnnQJbzLcpJKd8+aaxjlikoYWyIFBvAkIoLC8v08TERKk9Wex1qDvn/TLl2hx1O11SH6McW5vrUqe36Ni9SL0E9R0VSdhMVXeN5rodcrlh9MnVWAHb3n77bfriiy8KaCn/JpCc8mectAXEIikplAOB+hMQQmFhYYH4Gw+lvRZ71On0SE/5nGTdIiDwMnOhIARKh3gSjG9bFyK6UIh6H/hc9LuzZ8/SxYsXi242l/aQnHLBOpBRxGIgbKgEArUkIITC7Ows8RP9ynlx0nWckXtJ23WmrvzMVihIP6RAiPBJNcx/hX8sbpQ4UH+9Qv5+vVLx7z/99FP68MMPi284hxaRnHKAOqBJxGJAcKgGAjUkIITC1NQULS0tleC+TK6RZ+9ipSH6EoQpFDxbvBrg/GeuWJid9ep258i7+EHUp+2gviUQvB3yEobDlzjlExjN7N2NGzca8zVJJKfMhsXQhhCLoRHCAAjUhoAQCmNjY7S6ulqw047k7PBAJVw9v6pthiDQkzzplwb0s39HA6JshzpGfa9chFhwtq+Jk95ieEVC1NE74XIlh20rKys0Pj6eg+XiTSI5Fc88qkXEIooMtoNA8wgIoTA6Okrr6+sF9i6ZSPAdEgk7fN9AdPJNKBTUPQlaAhf3RuiiwWtbK+K7RXzZodejXleuHKibMZWQUJ+5Qlk3Nn711VfU7XY1n+v7FsmpOrFDLKoTC3gCAnkTEEJhcnIy73YM+0luVDQqiA9hcREpFOz7A+zPYpGhKy5R2AIgJBRE23KFQL9EIsUAXxZRlx7k3+7covgWBCfnoLwqE+5VEVu2bNkScTnGcWlEWxnhZFClf/wNDryqQQBCoRpxgBcgUASBklYUuGte4k+SjPQzfI3KoELBLQak4bh9Uhz06EP9q5z+zYxcnwWFdy+EWInw3guhEn2vhdalzN82aUUhczgwODABCIWB0aEiCNSOQIn3KOisos+441YfAqGQXHTolwN0D9T7OKGgyvh/vUsX9qqE3K/dp8CiIULs+LZyetOkexRyQgSzAxCAUBgAGqqAQE0JCKFQ3rceFDXrngK12bu2HyzhazvU5QNHlhbJ3vWVS7O681MSoaDsO5flNUEgyvXm5KWIfk+Pcnoz/MYmfetheBqwkBUBCIWsSMIOCFSfgBAK5T5HgR9J0I0845bJVn8UUwBVXgrwrqOrBO0v+WuXAYIqfd8lEQpsRF2G0D3jusaKhbfiYD9Mqq8TGRZo0nMUMsQCUwMQ2Lp1q/OeFd6OFwiAQHMJCKFQ6pMZY5fv5SUFI/mqVQa+t8FeTRAiQbsXwBcNyQOYTCgElzqUb06xUwGh0KQnMyaPIkrmQeDYsWP0+uuvG2KBP/N2vEAABJpLQAiFsn7rQSTluEsEsSJCD4pK3JpIULs9Gyqhq81Rf5MJhaB2sKphPdBJazetzcD68O+a9FsPw9OAhWEJuC63DWsT9UEABKpNQAgFdrHQX48UZ/pRKwLWV/LsVYMQT3nTYGh1wSonRYlDSLjKqcsY1j7jo79aoC43SD+EIPH6F4gTJWQsMWEYzP5D0349MntCsJiWgL6qgNWEtPRQHgTqScAXCjMzM3TlypV69iJDr5Oc/UvR4fh9Cv/eBbcgSWI7w67Q/Pw8nTx5MkuTsAUCxqUH4AABEGg+AV8o3Lp1i6anp5vf4xb1cNeuXfTgwYMW9RhdLYKAWlXAvQlF0EYbigA/GHDTpk34VyAD9TBGXyhwMPbs2UMvX75UccHfGhN4+PBhY34MquwwYIIKT86vvfYaJmzHhK0m1rLHbNPaL/ubeU3jmaQ/OnNDKJw/f55OnDiRxAbKVJzA3r176e7duxX3sh7u8VkMXiCQhADGShJK6cr86le/om9961vpKqH0UARs5oZQYMvbtm2jp0+fDtUIKpdL4ObNm3TgwIFynWhQ65j8GxTMnLuCsZI94HfffZc+//zz7A3DYiQBm3lIKFy7do2OHj0aaQA7qk/gzTffpC+//LL6jtbEQ0z+NQlUBdzEWMk2CD/+8Y/po48+ytYorMUScDEPCQW2cOTIEeKv1uFVPwKXL1+mM2fO1M/xCnuMyb/CwamYaxgr2QXk97//PX3961/PziAs9SUQxdwpFF69ekWbN2/uaxQFqkXg9u3btH///mo51QBvMPk3IIgFdQFjJTvQhw8fpuvXr2dnEJb6Eohi7hQKbO3+/fu0e/fuvoZRoBoEHj9+TDt27KiGMw3zApN/wwKaY3cwVrKBe+fOHdq3b182xmAlEYE45pFCgS1fvXqVDh06lKgRFCqXAK8A8UoQXtkTwOSfPdOmWsRYySayuM8qG45prMQxjxUK3Mi9e/cgFtLQLrjso0ePxErCixcvCm65Pc1h8m9PrIftKcbKsAQJT5QdHmFqC/2e4ttXKHCLvLKAyxCp2edega/f7dy5k54/f557W21uAJN/m6Ofru8YK+l42aWfPXtG+Nlym0q+n5MwTyQU2E2+Z4GXt/FtiHyDltT66dOniW88wSt/Apj882fclBYwVoaL5Le//W362c9+NpwR1E5FIAnzxEKBW+Zr4PzVSX7OAh7KlCoWmRXm51zwQ7HOnTuXmU0YiieAyT+eD/YGBDBWAhZp3924cQOPnU8LbcjySZmnEgrKJ5Ws+HHP+G0IRSXfv3xHKl/+gUjLl7PLOiZ/FxVscxHAWHFRSbbtG9/4Bv32t79NVhilMiGQlPlAQkF5yL8NwT8kxb86yT9RvbGxoXbhbwYE+HLPqVOniH9ohr8qxJ/xKp4AJv/imde1RYyVwSL3gx/8gM6ePTtYZdQaiEAa5kMJBeUd/0T1zMwMjYyM0MTEBLGA4CcELi0t0erqKq2vr6ui+OsgwDeTrKysEHO8cOGCuOt3+/btYgWB70XAT0U7oBW4CZN/gbBr3hTGSvoA/uY3v6FvfvOb6SuixsAE0jLPRCjo3i4vL9PCwgLxT1ROTU3R2NgYjY6OirNiPojwz2TAqwV8l+/4+LhYmTl+/DhdunSJnjx5omPF+xIJYPIvEX7NmsZYSR+w999/n375y1+mr4gaAxNIyzxzoTCw56gIAhUlgMm/ooGpoFsYK+mC8pOf/IS+//3vp6uE0kMRGIQ5hMJQyFG5DQQw+bchytn0EWMlHcevfe1r9Ic//CFdJZQeisAgzCEUhkKOym0ggMm/DVHOpo8YK8k5fvDBB3Tx4sXkFVByaAKDModQGBo9DDSdACb/pkc4u/5hrCRj+etf/5ree++9ZIVRKhMCwzCHUMgkBDDSZAKY/Jsc3Wz7hrGSjOeuXbvwba5kqDIrNQxzCIXMwgBDTSWAyb+pkc2+Xxgr/Zny1+f5YX1ZvtbmutTpztGaZXSx16FOb9Ha2r6PwzKHUGjfmEGPUxLIdfJfm6Nup0tz1gzHE1zX3hjye5F6jrqhYmk3CJ96NPD0utijTmeI+uyvzoXtOZKALNZ1JAKLS0x/RIJxJhLLRkKGuY6VhD5Uudj//d//0V/8xV9k7qJTKIi4d8gZ3gQeJDsGow1Fjy1HnZgx7iidalMWzCEUUiFH4TYSiJr8xdlKp0OdNP+MWWuN5roOQSASbYRdoz7nUz1RSnux/oQSrqxjmI1JrM7428LA/uys1G9jkKj5h+hEPx2iyOy/shnUFVti+uOuz7UsG8p0n79RY6VPtdbs/od/+Af613/9V6O/wx9H3nFgje1Yu1ZZwyHvQ2z9jn3cho+j8NgKl/HbtYVC3Bwg5pvkQtzF3G834RsIhYSgUKy9BKImf55I+p/1B9xCEwdPBipD+8mVE1QnfAYdeXa0SHO9xdCSqzwjNycT0X5ognRMXl5bLsGh3NV6JcSOsd3vS1Aq/TtHol5bpEVr5UVnKt4nEW2as3p900dH+2YB56eoseIs3LKN//7v/y4evGd3e5jjyJnMeYz7Y9g8BqQATHbcpvMrPF5CY0v4FF49FDz4mAkdmzap9J+jmKe1BKGQlhjKt45A1OQvJpKufkbvPrMhL3HOGWf/PLGoSYzfyyVSNTmJCdBPaHK/LkrEfisp6vuHFwrKt/hwJ07Ovq+aXX8yj1g98etY+30u9oqK8tWatEU7WruqmLjCocdPiiaXQJLb3DY0c+LJs/rntr3np8weO3bM2e0dO3bQ48ePQ/uGO46kOTEOtUSrjiMzWcvjyBfnIU/MDcqGuTXikyPRm227x6rrOB76sp3mYhRzrUiitxAKiTChUJsJxAqFuTUKJhSZaLq9HnWtSYsnJ33iEO/1RMjJjxOaX89LWt0udUPLnFY0XGcqUROXb1/ZiFpR6J8UjfsIlDn+6wmjvvc4xCTwfkv/zgnWFxD9hUKIP8fCYNPfht5l9T5qrKj9Tf/Lgur1118Xl+N0wfDJJ5/Qxx9/7Oy+On7UX6Lkx5E0qI4V72ZG4zji4agJTX+MmK4YZfTj0vk+vCrg19fs68e7WsmIEgGirD/+PEHjbLt/X1TP4pirMkn/QigkJYVyrSUQNfn7E5tK1It8Y6JMsGLiEJNGkHDMicPDGZNU/cnHW21wB8CR6LlglFDwJjJnouw3MXn75cqFnMyMVQzlYEyfVBHxN1YoRPTLNCAuewRniF7CiOuHNpGzKWdMRBtB3Pr7GjgVNVaCEs1+p6/GKMHwj//4j/TXf/3XkR0f+jgS40glUDuJm2PCOV7F4ZLscoRbwKqxYh4T+tgS77tztMiriqF7bTwffaFgo0pyLJh1/ud//ieWuVm6/ycIhf6MUKLlBKImf3+CUwnHOPP3Jg2+NOFNAPrEIZHKMlbuCs6A1A6ReOVEaE90agLiS/eBOPESoDXxhNsfPLCxtlIJBTXBa39Fv8OTo94/4blKEIqTOhON+LaIy2fXtsC2tqoSK2oCjm+88Ua6m1vjRE1D9v3Jn/wJ/eVf/mUAyXo37HEkYsisxHhfpJ76q/ip8aHGi0N46z5Y7lkflSgINhtjSIx9KVb87aLdQMBIf4PPcgWO/Y9aPQwfC0Hr7nd///d/T5999pl75wBbIRQGgIYq7SKQRCjIZXjrq1hegg/mqfD1cD3xqwlP32aQVhOdMqgJCHEmpwkDf5LSDLi2abuDt2xXsxXsSPhO+KUl2ahqjuSrT9j6ezmZapOrJ866LMREQuD2vDMzlSBcfxU7z6dIJrZv9ueIPkWNlYjijdvsWlGIW01gAEacvTFuhCn2OAoLcnUsJj6ObB9io2IJBce4UP1RY0t91s3yPukfj9kuzc15XykW9nicy7EclJFzi7DZ59hkgcBCIcsXhEKWNGGrkQSiJn99AhDvtdUDBiEOam2VQU0cApI3IeoTq5gcHdv1Mv7k5yVjcYNkt0e9Lp+Rq0SqTzJBSIz2g83sqZys1DcKIoQC99GYwJMkZitZ+/5LQP6lGuWOzjTw10sGxkoBb+uRf4Moc/M4GG0owyoeZge0Sw+Smc466n2UfW4qaqxobjT6LTNTlxz4HgUWCbwMHvfSY572OFJjRPztk0D7+RAV7/B2dZxJkWMNKb8Z5Zu/wfHGL2Mfc75g4EpybOrzQ1SbXDoJc4crsZsgFGLxYCcIRE/+wQSnzjK0BK0OdHHfgpxY/EkhDqqo5z4bD9rjCUqz6U2Q/mQpREQwmanmuH5wPV9t9RJkj79S5m2zJy0lCJJOxKJ9dx9Uq+JvRDt+Ivb60WURZLXNfeVyJtMEyd6aYc36gXeClWOJOijhftd2oaB/64FvXuQb6vq9gnGd/jhyHQeiPTF2tMtZcYJ1mBUF2Zj8SrPVRlhgKH+CY1P5b99TZB6rmlCwLjHabJMyt+v1+wyh0I8Q9reeQNTkryY4P0EzKZH85Bm+yknqoHcmJX1C42SYUCiooBhti40q8Ye/c6D8VXUjl2hFH9TjcOXZfFhg+FbCb0Sf+guFMA/ZluLmvFPcs/1hT9oP29DcMfqhbdfeivpqgldixPef/enfD81c61cUFAv+GiR/NS/JS41LYyyL2CU/joy63Kgfw7AHqr3wnmy3xI5Nuyl9rIo5QF+9M4WC6zIcm0vD3G6+32cIhX6EsL/1BGKFAn8V0jrz5AnCPysW9GTC8ZfJeZuYyBxn+EMKBSFK/EsQZujMCdJOymZZtdzJZ0VB4rbLRHyOmaSDGsHkJyZUO1mrSwW8XSVwtc3+LBz0BJKyE/e3txi+YVQ5JnwPzvjiEo6qov+NGit6mTa8n5ycJH7YT5KXGJeDHkdeA8MJBT4WVMyt40Icj2qfGIChy2VRfRxUKIhjWBvj6lgMjkM51s05higN8yifo7ZDKESRwXYQ8AhETf4yKZuJLA5aoonDO5uIWra0Jwd9glT+BBOK7o01Aeq7jPeynGjfbcgo7fyQRCjEllFJnydozx/PF5FUtHsVopl6/eUEpJV3+is26m1apbyYJLETNVYsi43+yI9o5scGJ32pcasLwri6rpjrx4GoGzO+nGNIS8ymrXBStutH+eryM6qsEKTCB9dxGt5m+kjisdhpmEf6EbEDQiECDDaDgCIQNfknmTD8SdA7w+2bewddUfCSmW5fTCb6mbW+U3VOnaVr5SKKaTWCGzWjBE3s9u4c/X+hGyOVeVMYyK0qies3bHp7jKddym2SeXAWKDkEn1VLwV9Xm8Fe9c62q7brf6PGil6m6e/5R5/4h4iSvrI4juzE6a/YaeNaH5O+6BPHjTU2rG0h29p++/jW2+j7Xj/QWNhoYoXZGcevtc9mm5a5Xb/fZwiFfoSwv/UEGjn5izMu7+aqPpNQlQeAmEx5wvWEEk/O+vwb+K6JDXeBoOgQ7xo5VlLw4J+P5p80LvoVSuYJVxTcIsVaRXDY4no5DqNU+IpgDqGQKiQo3EYCbZ/82xjzQfvc5rHy4MED2rVr16DoUG8AAkUxh1AYIDio0i4CbZ782xXp4Xvb5rHy3nvv0a9//evhIcJCYgJFMYdQSBwSFGwrgTZP/m2N+aD9butYuXjxIn3wwQeDYkO9AQgUyRxCYYAAoUq7CLR18m9XlLPpbRvHyh/+8Af62te+lg1AWElEoGjmEAqJwoJCbSbQxsm/zfEepu9tHCvf//736Sc/+ckw2FA3JYGimUMopAwQirePQBsn//ZFOZset22s/PKXv6T3338/G3iwkohAGcwhFBKFBoXaTKBtk3+bYz1s39s2Vr75zW/Sb37zm2GxoX4KAmUwh1BIESAUbSeBtk3+7YxyNr1u01g5e/Ys/eAHP8gGHKwkIlAWcwiFROFBoTYTaNPk3+Y4Z9H3toyV3/72t/SNb3wjC2SwkZBAmcwhFBIGCcXaS6Atk397I5xdz9syVg4ePEg3btzIDhws9SVQJnMIhb7hQYG2E2jL5N/2OGfR/zaMlZ/97Gf07W9/OwtcsJGQQNnMIRQSBgrF2kugDZN/e6Obbc/bMFa2bt1Kz549yxYcrMUSKJs5hEJseLATBIjaMPkjztkQaPpYOXnyJM3Pz2cDC1YSEagCcwiFRKFCoTYTaPrk3+bYZt33Jo+VL7/8kt58882skcFeDIGqMIdQiAkSdoEAE2jy5I8IZ0ugyWNl3759dOfOnWyBwVosgaowh1CIDRN2ggCEAsZAcgJNFQrXr1+nw4cPJweBkkMTqBJzCIWhwwkDTSfQ1Mm/6XEro39NHStf//rX6fe//30ZSFvbZpWYQyi0dhii40kJNHXyT9p/lEtOoIlj5aOPPqIf//jHySGg5NAEqsYcQmHokMJA0wk0cfJveszK6l/Txsrnn39O7777blk4W9luFZlDKLRyKKLTaQg0bfJP0/eosnzGg1eYQNPGyre+9S361a9+Fe4otuRGoIrMIRRyCzcMN4XA5OSk+OYDJwH8kww6nQ5YOMYDj5WmvC5fvkyzs7NN6U4t+lFV5hAKtRg+cBIEqkWAhQJezSYAgbyJ3njjjUIFcVWFJoRCs4919A4EciEAoZALVhitGAGMcxkQCIWKDUy4AwJ1IIAJtA5Rgo/DEsA4lwQhFIYdSagPAi0kgAm0hUFvYZcxzmXQIRRaOPjRZRAYlgAm0GEJon4dCGCcyyhBKNRhtMJHEKgYAUygFQsI3MmFAMa5xAqhkMvwglEQaDYBTKDNji96JwlgnEsOEAo4IkAABFITwASaGhkq1JAAxrkMGoRCDQcvXAaBsglgAi07Ami/CAIY55IyhEIRow1tgEDDCGACbVhA0R0nAYxziQVCwTk8sBEEQCCOACbQODrY1xQCGOcykhAKTRnR6AcIFEgAE2iBsNFUaQQwziV6CIXShiAaBoH6EsAEWt/YwfPkBDDOJSsIheRjBiVBAAQ8AphAMRTaQADjXEYZQqENox19BIGMCWACzRgozFWSAMa5DAuEQiWHJ5wCgWoTwARa7fjAu2wIYJxLjhAK2YwnWAGBVhHABNqqcLe2sxjnMvQQCq09BNBxEBicACbQwdmhZn0IYJzLWEEo1GfMwlMQqAwBTKCVCQUcyZEAxrmEC6GQ4yCDaRBoKgFMoE2NLPqlE8A4lzQgFPRRgfcgAAKJCGACTYQJhWpOAONcBhBCoeYDGe6DQBkEMIGWQR1tFk0A41wSh1AoeuShPRBoAAFMoA0IIrrQlwDGuUQEodB3qKAACICATQATqE0En5tIAONcRhVCoYmjG30CgZwJYALNGTDMV4IAxrkMA4RCJYYjnACBehHABFqveMHbwQhgnEtuEAqDjR/UAoFWE8AE2urwt6bzGOcy1BAKrRny6CgIZEcAE2h2LGGpugQwzmVsIBSqO0bhGQhUlgAm0MqGBo5lSADjXMKEUMhwUMEUCLSFACbQtkS63f3EOJfxh1Bo93GA3oPAQAQwgQ6EDZVqRgDjXAYMQqFmAxfugkAVCGACrUIU4EPeBDDOJWEIhbxHGuyDQAMJYAJtYFDRpRABjHOJBEIhNDSwAQRAoB8BTKD9CGF/EwhgnMsoQig0YTSjDyBQMAFMoAUDR3OlEMA4l9ghFEoZfmgUBOpNABNoveMH75MRwDiXnCAUko0XlAIBENAIYALVYOBtYwlgnMvQQig0doijYyCQHwFMoPmxheXqEMA4l7GAUKjOmIQnIFAbAphAaxMqODoEAYxzCQ9CYYhBhKog0FYCmEDbGvl29RvjXMYbQqFd4x69BYGBCWzdupV44rT/8Xa8QKCJBCAUZFQhFJo4utEnEMiBwLFjx+j11183hAJ/5u14gUATCUAoyKhCKDRxdKNPIJATAXs1ARNpTqBhthIEML5lGCAUKjEc4QQI1IOAvqqA1YR6xAxeDk4AQkGyg1AYfAyhJgi0koC+qtBKAOh0awhAKMhQQyi0ZsijoyCQDQG1qoB7E7LhCSvVJQChIGMDoVDdMQrPKkJgcnKSNm3ahH8ag9deew08NB5qfPBYwas5BCAUZCwhFJozptGTnAhwEsALBJIQwFhJQqk+ZSAUZKwgFOozZuFpSQQw+ZcEvobNYqzUMGgxLkMoSDgQCjGDBLtAgAlg8sc4SEoAYyUpqXqUg1CQccpcKCwvL9PCwgLNzs7S1NQUjY2N0ejoKOE6r/saN3PhJ9uNj4/T9PQ0HT9+nC5dukRPnjypx5HUAi8x+bcgyBl1EWMlI5AVMQOhIAORiVC4desWzczM0MjICE1MTND58+fp8uXLtLS0RKurq7S+vl6RsFfTjWfPntHKygoxxwsXLtD8/Dxt376ddu/eTadPn6YHDx5U0/GWeIXJvyWBzqCbGCsZQKyQCQgFGYyhhAILgj179ogz4StXrtDGxkaFQlx/V+7fv0+nTp0SqzH79u0j/oxX8QQw+RfPvK4tYqzUNXJuvyEUJJeBhMK1a9do27ZtdOLECXr58qWbMLZmSuDOnTtiheHo0aP09OnTTG3DWDwBTP7xfLA3IICxErBowjsIBRnFVELh1atXdOTIEUKyKu8QUCLt3Llz5TnRspYx+bcs4EN0F2NlCHgVrAqhIIOSWCjwsvfmzZtpbW2tguFsn0t878Lhw4fb1/ESeozJvwToNW0SY6WmgYtwG0JBgkkkFK5evSqWvSNYYnNJBK5fv047d+6k58+fl+RBO5rF5N+OOGfRS4yVLChWxwaEgoxFX6Fw7949OnToUHUiB08MAo8ePaK33nqLXrx4YWzHh+wIYPLPjmXTLWGsNCvCEAoynrFCgVcSihUJi9TrdKi3mGywrc11qRNZmG11aa6iV0oWex3qZugcXxbie0jwyp4AJv/smTbVIsZKsyILoSDjGSkU+J4E/h6/+yUTOkNM969/4hbJv9OjJFohLBTWaK6rEnCeQkG2k67vzEr1a43WFueo21G+EtGa/BxpsztHcZrn8ePHtGPHDne4sHUoApj8h8LXqsoYK80KN8/HeBE5hQKfmfIZ6mAvKSLizpalGEgrMmR53a5vRyVRkWxVMs5TKESTCYuX6LJEmo+G72YdYVP10dxlfLp9+zbt37/f2IYPwxPA5D88w7ZYwFhpVqQhFGQ8nUKBvwI5+Lcb+guFoYeSSKpd6vXkpQdexudLEL5wiFnpiLxSkdopXlUIr5A4hQL72y/Riz5Z4slzNqlQ4C7wEzHPnDmTujeoEE0Ak380G+wxCWCsl/q5ngAAHm1JREFUmDzq/glCQUYwJBT4e/r8nIREr8UedUL3AQwgFJyJlBOxWh2wvBHt9mhO3aOwNkdzi9rZuShuf7ZsZPHR0f+QUPAEQJeFjNdmqAxvF+WC/upl0ggFNsUPw8JDmbIIsLSByT87lk23hLHSrAhDKMh4hoRCqiTjSJRyOV279t533EQJizVam3MJEc6pciVB/eUmwsm0AKHADVsMdJ/UfQf65RLh69qiuJei460yiBWRmFUQHqzyX3gFw4X35s2bdODAAdcubBuAACb/AaC1tArGSrMCD6Eg42kIBf7tBn4sc+KXlSRlvajE77Iqy3Iw7GTKpYMEqifI4IbFICnLbeZlhYKEghIp+mUC8d7lk84g2J/sGxDp+rN37166e/eu3iDeD0gAk/+A4FpYDWOlWUGHUJDxNIQC/8BTqt9uiBEK8gxYnQl7f/VMrpbk+SuC1rK7cM3bL6qIdsJfmwyEgmtwpkusLguDbIv3Kcai10cnN15R6HePg2X64cOHdPDgQWsrPg5CAJP/INTaWQdjpVlxh1CQ8fSFAv/E8fT0dLooxwgF1wpBYFyuJOi6wT6rFqsJenLktvTP1pm8WuaPTLRi+T64ByDwJf07IQb8ywGWGOq33e90sDIiPHD0T3km2rP6rvbF/d21axd+ojoOUMJ9mPwTgkIxwlhp1iCAUJDx9IXCzMwM8U9Fp3oNLBQcrYgVBO8Sg76a4CiqNsWfvVd8RUHvL3dIsIwRHQMIhfn5eTp58qTChb8DEsDkPyC4FlbDWGlW0CEUZDx9oTAyMkIbGxvpopylUOCW9WTpn3lHu1RrocB91ZO//Vnr9qArCvwV13feeUezhLeDEIic/IXYi1ulKkesDtJH1MmGQORYycY8rBRMAEJBAhdCYXl5mSYmJtKHIGOhENy8GDf5Bm4OIxS4rQRaJGgs4bt4nwIjoq+6A7pIcl2+0EVFYKbvu7fffpu++OKLvuVQIJpA3OQfiqNhJolQkJfh4i/VGUaz/WCvbHnWuV/9fOKxrg9hrho7/sUYt49t2X/bDpF1aS6i1+72LO4xgs5dnxuzbES0b2+OGyt2WXyuPgEIBRkjIRQWFhaIv/GQ+pWVUBAHMi+7q0kk2eQZfZBzT+IOdPXVy+zFQrxPirDsnzE5MssIMZDMprJt/j179ixdvHjR3IhPqQjETv48diPiFj8GpQsitn59mRx5cnL/U8eHrCtESmTZCBvGoItIxnGiVau/ttijrvUcFXOsWuPcIRTM/uthiTt+g3Jme2q7VRdCQYHB35QEIBQkMCEUZmdnxRP9kjHsN5lFTFBqQvMnRf1Sg/71x8ALMQlwPW1yCvbqZy9yQnJPrpY/ofbdbevtpHnvnrgsCy6BFRIKZp8iEFiGwx8//fRT+vDDD8M7sMUgsHXrVjp27JixTX2IFQqqkPib5NjQkr1IYEnGnxwL9hl+krN+3b3Q2OQxpwaWn8S9cacfJ2zEE/OquLIrj9GgT2Yb0pZfx2/Dry2eJ2Lut45XNW/4f4O2pFvBD8NJX/rVN+cT01/lF/9l35PERq9DuJnRxFH7TxAKMoRCKExNTdHS0lJxQRUThnnAxjauylu/LBl9kMdaM3ZmYUM3mLU93fYg72/cuIGvSSYAxxPC66+/Ls7kbcHgEgqus/neohQKfuKzk411Zmskeh7jQcXA44gEzQVE/W6QKHmbGH92kvcStP8kU2GdE6FKukFCVz6J/vn+yP22UJFOmn02x39gVzbJD1BTbXonCravoqC06W5Ptqr+N9tTW7ldLclb3FUp/mvW7yf0NN91I9p711jh8cRCFK/6EYBQkDETQmFsbIxWV1frF0V43JfAysoKjY+P9y3X9gL6apQtGFyTv8HLS8T8kG7+9VI/v8YIBTOhWwnVMy6StTiT1pKe1rCe1GVS9RJsr2dcDlFJX0+K4r1/lu6Jdk6ofuL2kma3a/7Kqda+663ehjwr13j4nLimlcx5n2pbJHZ3n1WbARttBcEHb9l2CIVQ/5mFal800t+G8kX/q48VFgi6ANXL4X09CEAoyDgJoTA6Okrr6+v1iBy8TEWAv/aqJ0G81xKLnigd71kwbN++vc9yspec+cFhiYWCl4S1NvWzZz8JqsQnEp30W23iQaCEgrws0KU58dPl8qxXiQM9IZtJ3BtGRvI2h5bvh7WSp/qpxpLuk9mGJYC0tpzl5qJ+aj3qTN7j6DsQ5qp89P/6ZWVfTT/0/g8uFGyBoNrWreN9PQhw7PDyfmZ6cnISLBpMAPHtH1w1mfPfNCsKItH4Z6IJEpW+9K6WvkX9oK6VyzTnZeJVlyh8oaDsGI9Cl2W7fGnC8y+cFK1E7rXkCwTliEjwUqjogkYJBlWMq5ttWPY1oeC34YmlwK5Vx7Ea4ANRAsp3QDIMbPklxRvTN7nPtc0rTF09VnF+aM289tpr/vjRxxTeJxfoVWLF3xrDyxMKWFFo7lD46quviJMFXvEEXAJB1dCXk9U28VclUF6eF8lKJio/b9nL63ay0RKnYTfhB10oOG829PxT/phJMZxUxX5DbFiORCRmZZ9LCwHgb7CSvqO/ok1faDnusbCZaS5xXSGEhNjgVYdAbEUmG983achkYhgfSCjwWMGKgsYRbxtBAPcoNCKM0Z3APQrRbPQ9qb/1IBJYl3o9ecY+J547IH8VNMhFnCi1a+160rOSuPLFPtO2E15gW7v0oC5DaKsHbM9O/EZSVElfu/whbDu26z6YZ+u2MDJ9ir9HQThoJuMkid4/y2e25k/Nd7s96nWjn/9g9N8DHmxLIDJCqx8qasFfXVTagiEohXcgUC8C5XzroV6Mau0tvvUwfPj0yV9ZW+xJARAkmkXqeYkqSObRQsElCIJ6Xiu6sFANa3+DFQXVjrZKIOqq+xZsXzUj9tuYNoP2VKVhhILns/gpeddlDa+NCH+YO4uWgD+XT5DsLchmfdUvb2UkdG9GsD/qnWussGDAtx6iiGF7HQgIoZDuOQrFdSvqIJYeqMmxOH+4JeGTfs3XP8Mp1o+kreE5CklJRZdzTf6qtDlGEySqNOMlIkmqtlXi1sekeAy6JViEKOktWknVs+KtbIhVAx7XMW2q9lT7KjFz7l2b69Hcmi0c+BiN+NaDatdK3MK22OetxPj+sK3gpsbFnnxv8g888+1olzWsveKjqK9WVVRZ0T7bN9t01be3xY0Vuyw+g0BdCAihMPCTGXPuZXgSkBORXP6MEQpichns5hnXvKV3U5+U+bcU5O9TaMvLeuEKvMeTGYcPQtzkb45RV6LUxoaf9GyfZEJVNyn6eyPLyxIicfNXIfVk7IlZ8xKBTHjGcxSiEnVMm1FCQd4nYK5eeB5GCwW/k/YbycL3X/PHZC3rBduSiDRvTugtynspWCDYB7wuUrgJXzTYfro/x40Vdw1sBYHqExBCYeDfesi5f2IS4INZKX1t0tC/9pXEjWBCkaXDk14SK+aKQrIa5ZbCbz0Mzz9u8rfHldlajJhVN/6Js9ngTNmob4x3Y4/4wGPYXwkI7w5tiffVKy7ajBbZfgKXHgghoB6iJPwxEq9M+v4mR9L1j3HvJkphQx3v3IbBwBZi3vHoN6B32WubhZT46qq+z/VeCQ1N2KliHpMkduLGijKHvyBQNwJCKLDTA/16ZF69FQemd6OYUv9q6VQtE0b8VXOGPgHpN2PFvVcTwSB1fbvKgbzYpLCLX49MASumaNzkH598o4SCTEpqvMmmVaKKTtJqjKl6ScSuLya846Xv8DQSswkl1B4nfpXU7TNxUTVaKCi/VF9EcVfbtrjQ21SXAq1OSdtBwpfHc/DZ7BV/kn6GVhesgrZda7f4GDdWXOWxDQTqQMAXCvxgnitXrlTDZ29y8JdK1+ZobtGedO3PputiclCTmGNCsSc9+7NpLfhk2w32VO/d/Pw8nTx5snqO1cyjuMl/MKFQMwB93bUEQVR5O+lHlTNWW6K/xcDVff7eWT+LKUs3eK1oQsxdIMab5LvixkpyKygJAtUi4AuFW7du0fT0dCW8Uwe/+stOifda4u936cEur9tie7YwsD/rN2rpUIQd7aYqfV/V3u/atYsePHhQNbdq5w8m/9qFrDSHMVZKQ4+GcyTgCwVuY8+ePfTy5cscm0tiOliWDZK73GaeCCRYUYi4PKGWcO2/xjIou+qdpejbpVAIn7Ww0Oi3dJmk91mVefjwIX4MKiOYmPwzAtkCMxgrLQhyC7toCIXz58/TiRMnKoMhEAoulxIIBX0Fos+yZ3hFwWtTiIXg+qYSCv61WW91whQxLn+L3bZ37166e/dusY02tDVM/g0NbA7dwljJASpMlk7AEArszbZt2+jp06elO8YOGEJBuwZprwQEnyPuHvcexKKvDAzSwUAkyCfA9cR9E+HVhUFsZ1nn5s2bdODAgSxNttoWJv9Whz9V5zFWUuFC4ZoQCAmFa9eu0dGjRyvhviEUQh5FrShoNy2lvPQgBIe+CqHa1C5BCJ+4jLZNFavK3zfffJO+/PLLqrhTez8w+dc+hIV1AGOlMNRoqEACIaHAbR85coTEw4QKdMTV1GBCwbIUc8lBrhAElxWsmuKjuPdAEw++UOC9wna1VhQuX75MZ86ccXUF2wYkgMl/QHAtrIax0sKgt6DLTqHw6tUr2rx5c+ndH1ooWJcr9PsIhADQf7DH7m2ECDCEgro8EvmVLNtovp9v375N+/fvz7eRFlrH5N/CoA/YZYyVAcGhWqUJOIUCe3z//n3avXt3qc4PLRQM7+1LElH3M7i+ihkYsoWC2OOJijK/9fD48WPasWNH4CjeZUYAk39mKBtvCGOl8SFuZQcjhQLTuHr1Kh06dKg0MIFQkA90CW5ajHl6nXaZIHBcry8vNcgVhXSPwGV7op6+NOE34rXh3OcXyu0NrwDxShBe2RPA5J8906ZaxFhpamTb3a9YocBo7t27V5pYCIRCyiBZlxzUs+ijrIh2+MbHiCTv70/6GNyohnLY/ujRI7GS8OLFixyswyQTwOSPcZCUAMZKUlIoVycCfYUCd4ZXFsq+DFEnqEX5ev36ddq5cyc9f/68qCZb2Q4m/1aGfaBOY6wMhA2VKk4gkVDgPvA9C7y8XYVvQ1ScaSHunT59mg4fPlxIW21vBJN/20dA8v5jrCRnhZL1IZBYKHCX+Bo4f3WSn7NQlYcy1Qd1Np7ycy74oVjnzp3LxiCs9CWAyb8vIhTwCGCsYCg0kUAqoaAAqGTFj3su/7chlFfN/nvnzh1x+Qcirfg4Y/IvnnldW8RYqWvk4HccgYGEgjLIvw3BPyTFvzrJP1G9sbGhduFvBgT4cs+pU6docnKS9u3bJy7/ZGAWJlISwOSfEliLi2OstDj4De76UEJBceGfqJ6ZmaGRkRGamJggFhD8hMClpSVaXV2l9fV1VRR/HQSePXtGKysrxBwvXLhA8/PztH37drGCwPci4KeiHdAK3ITJv0DYNW8KY6XmAYT7TgKZCAXd8vLyMi0sLNDs7CxNTU3R2NgYjY6OirNiPojwz2TAqwVbt26l8fFxsTJz/PhxunTpEj158kTHivclEsDkXyL8mjWNsVKzgMHdRAQyFwqJWkUhEKgRAUz+NQpWya5irJQcADSfCwEIhVywwmiTCGDyb1I08+0Lxkq+fGG9HAIQCuVwR6s1IsCXhzgB4B8Y9BsDPFbwAoGmEYBQaFpE0R8QKIDARx99VEAraAIEQKAKBCAUqhAF+AACNSPAP9CGFwiAQDsIQCi0I87oJQhkSgBCIVOcMAYClSYAoVDp8MA5EKgmAQiFasYFXoFAHgQgFPKgCpsg0HACEAoNDzC6BwIaAQgFDQbeggAIJCMAoZCME0qBQBMIQCg0IYroAwgUTABCoWDgaA4ESiQAoVAifDQNAnUlAKFQ18jBbxBITwBCIT0z1ACB1hOAUGj9EACAFhGAUGhRsNFVEMiKAIRCViRhBwSqTwBCofoxgocgUDkCEAqVCwkcAoHcCEAo5IYWhkGguQQgFJobW/QMBGwCEAo2EXwGARDoSwBCoS8iFACBxhCAUGhMKNERECiOAIRCcazREgiUTQBCoewIoH0QqCEBCIUaBg0ug8CABCAUBgSHaiDQZgIQCm2OPvreNgIQCm2LOPoLAhkQgFDIACJMgEBNCEAo1CRQcBMEqkQAQqFK0YAvIJAvAQiFfPnCOgg0kgCEQiPDik6BgJMAhIITCzaCAAjEEYBQiKODfSDQLAIQCs2KJ3oDAoUQgFAoBDMaAYFKEIBQqEQY4AQI1IsAhEK94gVvQWAYAhAKw9BDXRBoKQEIhZYGHt1uJQEIhVaGHZ0GgeEIQCgMxw+1QaBOBCAU6hQt+AoCFSEAoVCRQMANECiAAIRCAZDRBAg0jQCEQtMiiv6AQDQBCIVoNtgDAiAQQQBCIQIMNoNAAwlAKDQwqOgSCORNAEIhb8KwDwLVIQChUJ1YwBMQqA0BCIXahAqOgsDQBCAUhkYIAyDQPgIQCu2LOXrcXgIQCu2NPXoOAgMTgFAYGB0qgkDtCEAo1C5kcBgEyicAoVB+DOABCBRFAEKhKNJoBwQaRABCoUHBRFdAoA8BCIU+gLAbBEAgTABCIcwEW0CgqQQgFJoaWfQLBHIkAKGQI1yYBoGKEYBQqFhA4A4I1IEAhEIdogQfQSAbAhAK2XCEFRBoFQEIhVaFG51tOQEIhZYPAHQfBAYhAKEwCDXUAYF6EoBQqGfc4DUIlEoAQqFU/GgcBAolAKFQKG40BgLNIACh0Iw4ohcgkIQAhEISSigDAiBAW7duJRYI9j/ejhcIgEBzCUAoNDe26BkIZErg2LFj9PrrrxtCgT/zdrxAAASaSwBCobmxRc9AIHMC9moCLkFkjhgGQaByBCAUKhcSOAQC1SWgrypgNaG6cYJnIJAlAQiFLGnCFgi0gIC+qtCC7qKLINB6AhAKrR8CAAAC6QioVQXcm5COG0qDQF0JQCjUNXLwGwRKJLB9+/YSW0fTIAACRRKAUCiSNtpqJYGVlRX6+OOP6dChQzQ6OkqTk5O0adMm/CuZAcfhb/7mb+jv/u7v6J/+6Z/o3/7t3+iPf/xjK8coOg0CcQQgFOLoYB8IDElgZmaGDh8+TJ988gn953/+J62vrw9pEdWzJPDf//3f9Pnnn9O//Mu/CCE3Pj5OLOzwAgEQCAhAKAQs8A4EMiPwi1/8grZs2UJXrlzJzCYM5U9gY2ODWCzwChBeIAACkgCEAkYCCGRM4Oc//znt2bOHfve732VsGeaKIvCjH/2Ivve97xXVHNoBgUoTgFCodHjgXN0I8ErC+++/Xze34a+DAF8uOn78uGMPNoFAuwhAKLQr3uhtzgT4cgNWEnKGXKD5sbExWl1dLbBFNAUC1SMAoVC9mMCjmhLgGxdxT0JNgxfh9v3792n37t0Re7EZBNpBAEKhHXFGL3MmwHfKf+c738m5FZgvg8AHH3xAn332WRlNo00QqAQBCIVKhAFO1J0A3yXP17Txah6BH/7wh3TmzJnmdQw9AoGEBCAUEoJCMRCII8APU+LnJODVPAI//elP6bvf/W7zOoYegUBCAhAKCUGhGAjEEeAnLuJhSnGE6ruPH8j07rvv1rcD8BwEhiQAoTAkQFQHASbAjwPGq7kEEN/mxhY9608AQqE/I5QAgb4E+Lcb8GouAcS3ubFFz/oTgFDozwglQKAvASSSvohqXQDxrXX44PyQBCAUhgSI6iDABJBImj0OEN9mxxe9iycAoRDPB3tBIBEBJJJEmGpbCPGtbejgeAYEIBQygAgTIIBE0uwxgPg2O77oXTwBCIV4PtgLAokIIJEkwlTbQohvbUMHxzMgAKGQAUSYAAEkkmaPAcS32fFF7+IJQCjE88FeEEhEAIkkEabaFkJ8axs6OJ4BAQiFDCDCBAggkTR7DCC+zY4vehdPAEIhng/2gkAiAkgkiTDVthDiW9vQwfEMCEAoZAARJkCgkolkbY66nR4tDh2eRep1OtSdW/Mtrc11qdOdo2CLv8t8I3zoklZV2892o/ZpxSrwtpLxrQAXuNAOAhAK7YgzepkzgawTyWKvQ53OgP96gTRgO6EEH2NXqxoQW+xRxxIcSYWC6IfTKJvvJxSkQEnOIQtRFHRbf5d1fHXbeA8CVScAoVD1CMG/WhAoNZHErRzwPu3MPzrBr9Fct0OunO5K9k47VltkCQxRJ0ak+ILAd0IKBf+jNxKEHXuj1VbWg6bU+GbdGdgDgZQEIBRSAkNxEHARKDWROISCa0WCc6uR4I16EUJBlAlfHjDsCCDe2b8vSqQ9fTUjzA0rCmEm2AIC1SMAoVC9mMCjGhLIRyjELL37CZk4+8ffi6CdbRsJ3qjnFgpCcOhtebEx7JCsq9+zYO6X/QiLhmRCwV48ELbtjVof8xg++cQ3D09hEwSyJwChkD1TWGwhgXwSiUywdk4US/p68jYSvg3fTNJGAjfqOYSC2N9x3rQY2PFEgnEPg9qm3WMhOuHYHroUod9n4O4/hIIdY3wGgXwJQCjkyxfWW0KgqkLBXhEIEry9EmELBS2p66LEi6e006WuSPR6cjcD7rq/wSwR90kKBf/ehZCo0IRIHz/iWkmyL5/4JmkZZUCgfAIQCuXHAB40gEA+icR9Rp10RUEkc/5aY7dLHW9ZIrFQUEv5/DdKKHByduzzw7nYM75x4W9P/Mbdf9EHe5lF+ZvYdrqC+cQ3nQ8oDQJlEYBQKIs82m0UgXwSiTtRJhIKInF2qdvtUKc3J77RwPcIGELBSK7misJiz7uB0SEUlACJFQnqsoW2CuC3r20LrRbECQ9vxDiFQs6jKZ/45uw0zINARgQgFDICCTPtJpBPIhlcKKhEz0v/8iZCttWjOe1BSWbCN4WCH01DKEh//OQek9SVbfsGxrgkL/Z5NlV9v604cWHts9v0+zLEm3ziO4RDqAoCBRKAUCgQNppqLoF8EomVmPWEqCdp46ZEk3EgFMzt5H1TQVyW0G3ZxZRQEKsPvDohH+akJ3W9in1PhL6P3ycVCnY98Vn0s0u9Hl9K6QnhEzxaylkjs435xDcz92AIBHIlAKGQK14YbwuBfBJJxIqCDXUQoeAl3bk56x4EIQi0mxOVULDajBUK2v0DxspAb3FgoaALkEBsJORj+T7Ix3ziO4gnqAMCxROAUCieOVpsIIFSE4md3DW+7hUF7xsNnNBtIdDvs2dbCgBNUIjtMnF35z4T90TwZQP7MoAhHPQVEvXeWN0IvnmhaY+Q2BAiouN+qqSGYqi3pcZ3KM9RGQSGJwChMDxDWAABKjaRBAlUXcO3E7IKiUsoyMTqJXlLZARn654FWzgow2JFwv56In+2xYOqIP+G7Gu7xT5PKMQl/ygbqo66PKKZHvptsfEd2l0YAIFMCUAoZIoTxtpKoKqJxBQK3j0PEWftSnToZ++hFYcKBDhKKOTpWlXjm2efYRsEFAEIBUUCf0FgCAJVTSS+UBArB/kuzw+Br/JVqxrfyoODg40gAKHQiDCiE2UTQCIpOwL5to/45ssX1qtNAEKh2vGBdzUhgERSk0AN6CbiOyA4VGsEAQiFRoQRnSibABJJ2RHIt33EN1++sF5tAhAK1Y4PvKsJASSSmgRqQDcR3wHBoVojCEAoNCKM6ETZBJBIyo5Avu0jvvnyhfVqE4BQqHZ84F1NCCCR1CRQA7qJ+A4IDtUaQQBCoRFhRCfKJoBEUnYE8m0f8c2XL6xXmwCEQrXjA+9qQmBycrImnsLNQQggvoNQQ52mEIBQaEok0Y9SCYyOjtL6+nqpPqDxfAh8/vnn9O677+ZjHFZBoAYEIBRqECS4WH0C3/nOd+g//uM/qu8oPExN4Kc//Sl997vfTV0PFUCgKQQgFJoSSfSjVAL//M//TD/60Y9K9QGN50Pghz/8IZ05cyYf47AKAjUgAKFQgyDBxeoTWFlZocOHD1ffUXiYmsDx48fps88+S10PFUCgKQQgFJoSSfSjdAIzMzN05cqV0v2AA9kRuH//Pu3evTs7g7AEAjUkAKFQw6DB5eoS+Ku/+iv63//93+o6CM9SERgbG6PV1dVUdVAYBJpGAEKhaRFFf0ol8Itf/IL27NlTqg9oPBsCn3zyCfFlB7xAoO0EIBTaPgLQ/8wJ/PznP6f333+ffve732VuGwaLIcA3pn7ve98rpjG0AgIVJwChUPEAwb16EuCVhS1btuCehZqFb2Njg8bHx+njjz+umedwFwTyIwChkB9bWAYB4hsc+RkL/PU6vjHuq6++ApUKEfiv//ov8fyLy5cv08GDB4VI4G+w4AUCIBAQgFAIWOAdCORCgBMPfxf/yJEj1O12iR8HzL8dgH/lMuA4/O3f/i299957NDs7Szdu3KA//vGPuYwBGAWBOhOAUKhz9OA7CIAACIAACORM4P8Hi8iLMKeh1Y0AAAAASUVORK5CYII=;" vertex="1" parent="1">
          <mxGeometry x="153" y="110" width="522" height="440" as="geometry" />
        </mxCell>
      </root>
    </mxGraphModel>
  </diagram>
</mxfile>
